<svg version="1.1" xmlns="http://www.w3.org/2000/svg" xmlns:xlink="http://www.w3.org/1999/xlink" x="0px" y="0px" viewBox="0 0 1000 1000" enable-background="new 0 0 1000 1000" xml:space="preserve">
<metadata> Svg Vector Icons : http://www.onlinewebfonts.com/icon </metadata>
<g><g><path fill="#ff5a00" d="M500,10C229.4,10,10,229.4,10,500c0,270.6,219.4,490,490,490c270.6,0,490-219.4,490-490C990,229.4,770.6,10,500,10z M699.3,411.4c0.2,4.2,0.3,8.4,0.3,12.5c0,127.6-97,274.7-274.6,274.7c-54.5,0-105.2-15.9-147.9-43.4c7.5,0.9,15.2,1.3,23,1.3c45.2,0,86.8-15.4,119.8-41.3c-42.2-0.8-77.8-28.7-90.1-67c5.9,1.1,11.9,1.7,18.1,1.7c8.8,0,17.4-1.2,25.4-3.4c-44.2-8.9-77.4-47.9-77.4-94.6v-1.2c13,7.2,27.9,11.6,43.7,12.1c-25.9-17.4-42.9-46.9-42.9-80.4c0-17.7,4.7-34.3,13.1-48.5c47.6,58.4,118.7,96.8,198.9,100.9c-1.7-7.1-2.5-14.4-2.5-22c0-53.2,43.2-96.5,96.5-96.5c27.7,0,52.8,11.7,70.4,30.5c22-4.4,42.6-12.4,61.3-23.4c-7.2,22.5-22.5,41.4-42.4,53.4c19.5-2.4,38.1-7.6,55.4-15.3C734.5,380.8,718.2,397.8,699.3,411.4L699.3,411.4z"/></g></g>
</svg>
